<svg width="27" height="17" viewBox="0 0 27 17" fill="none" xmlns="http://www.w3.org/2000/svg"><path d="M16.0532 3.13915C16.0532 3.13915 17.0437 2.02758 18.9351 1.42034C18.9351 1.42034 19.4261 2.70623 19.6922 4.86246L18.6683 5.36422C18.6683 5.36422 19.2018 3.89113 18.665 2.09319C18.665 2.09319 17.5721 2.47337 16.3889 4.09183L16.0532 3.13915ZM16.8729 8.50529C19.6923 5.58228 21.8472 6.01649 21.8472 6.01649C20.9914 13.342 15.1819 14.5224 15.1819 14.5224C23.3771 13.9724 23.3384 4.41346 23.3384 4.41346C19.0536 4.58136 16.9225 7.1242 16.9225 7.1242L16.8729 8.50529ZM22.5986 9.33704C24.1169 9.13184 25.6184 9.70628 25.6184 9.70628C24.6749 11.2392 23.3384 11.9603 23.3384 11.9603L24.3546 12.4395C25.7402 10.7246 26.1571 9.46762 26.1571 9.46762C24.8096 8.68348 22.9859 8.41074 22.9859 8.41074L22.5986 9.33704ZM13.4961 2.14594C13.4961 2.14594 17.5244 5.86082 14.5105 13.4752C14.5105 13.4752 19.9526 6.65783 13.4961 0H13.5039C7.04676 6.65783 12.4895 13.4752 12.4895 13.4752C9.47494 5.86082 13.5039 2.14594 13.5039 2.14594H13.4961ZM10.9462 3.13915C10.9462 3.13915 9.95568 2.02758 8.06494 1.42034C8.06494 1.42034 7.57389 2.70623 7.30774 4.86246L8.33173 5.36422C8.33173 5.36422 7.79751 3.89113 8.33431 2.09319C8.33431 2.09319 9.42725 2.47337 10.6104 4.09183L10.9462 3.13915ZM10.0768 7.1242C10.0768 7.1242 7.94637 4.58136 3.6616 4.41346C3.6616 4.41346 3.62294 13.9724 11.8174 14.5224C11.8174 14.5224 6.00795 13.342 5.1528 6.01649C5.1528 6.01649 7.30775 5.58228 10.1271 8.50529L10.0768 7.1242ZM4.0141 8.41074C4.0141 8.41074 2.18974 8.68348 0.842256 9.46762C0.842256 9.46762 1.2592 10.7246 2.64471 12.4395L3.6616 11.9603C3.6616 11.9603 2.32443 11.2392 1.38164 9.70628C1.38164 9.70628 2.8825 9.13184 4.4014 9.33704L4.0141 8.41074ZM15.6208 15.7723C22.424 19.5644 27 13.3613 27 13.3613C25.9902 13.4765 24.4081 12.7715 24.4081 12.7715C22.7127 11.7821 21.3375 11.5988 21.3375 11.5988L21.0075 12.0278C21.9658 12.3006 24.162 14.0947 24.162 14.0947C21.012 16.9469 17.7409 16.4175 16.03 15.8244H16.0306C15.7999 15.7073 15.4217 15.5375 15.2786 15.6044C14.9209 15.7717 14.2926 15.9962 13.4961 15.9949H13.5039C12.7074 15.9962 12.0784 15.7717 11.7207 15.6044C11.5783 15.5375 11.2013 15.7067 10.9706 15.8238C9.26035 16.4175 5.98797 16.9475 2.83739 14.0947C2.83739 14.0947 5.03423 12.3006 5.99248 12.0278L5.66254 11.5988C5.66254 11.5988 4.28669 11.7821 2.59122 12.7715C2.59122 12.7715 1.00917 13.4765 0 13.3613C0 13.3613 4.57539 19.565 11.3792 15.7717C11.4997 15.7292 11.599 15.7035 11.6292 15.7324C12.2801 16.3628 12.9258 16.5809 13.5039 16.577H13.4961C14.0735 16.5809 14.7192 16.3628 15.3708 15.7324C15.4004 15.7035 15.4996 15.7292 15.6201 15.7717L15.6208 15.7723Z" fill="#fff"/></svg>