<svg width="145" height="114" viewBox="0 0 145 114" fill="none" xmlns="http://www.w3.org/2000/svg"><path d="M1.06368 104.059V66.0552C1.06368 66.0552 1.101 66.0005 1.30187 66.0288C1.50629 66.0535 1.61472 66.1206 1.61472 66.1206C2.45907 66.4824 3.179 67.621 3.77449 69.1038C5.37964 73.0985 5.45253 77.1639 4.08734 81.2045C3.48652 82.9891 2.65461 84.4931 1.70894 84.9997L1.54718 85.0757L1.70894 85.1516C2.65461 85.6582 3.48652 87.1622 4.08734 88.9503C5.45253 92.991 5.37964 97.0581 3.77449 101.051C3.211 102.453 2.4733 103.365 1.78182 103.814C1.78182 103.814 1.46008 104.006 1.06368 104.059ZM63.6043 103.814C64.2957 103.365 65.0334 102.453 65.5987 101.051C67.2039 97.0581 67.275 92.991 65.9116 88.9503C65.3108 87.1622 64.4771 85.6582 63.5314 85.1516L63.3696 85.0757L63.5314 84.9997C64.4771 84.4931 65.3108 82.9891 65.9116 81.2045C67.275 77.1639 67.2039 73.0985 65.5987 69.1038C65.0015 67.621 64.2798 66.4824 63.439 66.1206C63.439 66.1206 63.3287 66.0535 63.1261 66.0288C62.9235 66.0005 62.8879 66.0552 62.8879 66.0552V104.059C63.2825 104.006 63.6043 103.814 63.6043 103.814ZM80.8379 98.0307C80.0451 100.995 79.0337 103.348 77.9067 104.071C76.7833 103.348 75.7683 100.995 74.9772 98.0307C72.837 90.0413 72.741 81.9071 74.5577 73.8258C75.3985 70.0888 76.5717 66.9379 77.9067 66.0835C79.2434 66.9379 80.4148 70.0888 81.2574 73.8258C83.0741 81.9071 82.9781 90.0413 80.8379 98.0307ZM78.1324 74.5831C78.0756 71.1003 77.9973 68.1612 77.9067 67.365C77.816 68.1612 77.7396 71.1003 77.6827 74.5831C77.5601 82.1224 77.5672 89.7076 77.7112 97.1569C77.7609 99.9178 77.8302 102.117 77.9067 102.792C77.9849 102.117 78.0524 99.9178 78.104 97.1569C78.248 89.7076 78.2551 82.1224 78.1324 74.5831ZM95.4336 98.0307C94.6408 100.995 93.6276 103.348 92.5024 104.071C91.3772 103.348 90.364 100.995 89.5729 98.0307C87.4309 90.0413 87.335 81.9071 89.1552 73.8258C89.9942 70.0888 91.1674 66.9379 92.5024 66.0835C93.8374 66.9379 95.0106 70.0888 95.8514 73.8258C97.6698 81.9071 97.5738 90.0413 95.4336 98.0307ZM92.7281 74.5831C92.673 71.1003 92.5948 68.1612 92.5024 67.365C92.4135 68.1612 92.3335 71.1003 92.2784 74.5831C92.1575 82.1224 92.1611 89.7076 92.3051 97.1569C92.3584 99.9178 92.426 102.117 92.5024 102.792C92.5806 102.117 92.6464 99.9178 92.6997 97.1569C92.8455 89.7076 92.849 82.1224 92.7281 74.5831ZM23.9482 73.178C22.4106 69.6016 20.6526 66.6748 19.1665 66.0764L22.8035 85.4411H15.4745L19.1114 66.0764C17.6254 66.6748 15.8674 69.6016 14.3298 73.178C11.0075 80.9115 9.5765 89.0616 10.2022 97.4623C10.4333 100.573 10.9932 103.125 11.9798 104.059L15.3661 86.0165H22.9119L26.2982 104.059C27.2794 103.125 27.8447 100.573 28.074 97.4623C28.6997 89.0616 27.2705 80.9115 23.9482 73.178ZM106.056 103.814C106.748 103.365 107.486 102.453 108.047 101.051C109.654 97.0581 109.727 92.991 108.362 88.9503C107.761 87.1622 106.929 85.6582 105.984 85.1516L105.822 85.0757L105.984 84.9997C106.929 84.4931 107.761 82.9891 108.362 81.2045C109.727 77.1639 109.654 73.0985 108.047 69.1038C107.454 67.621 106.734 66.4824 105.889 66.1206C105.889 66.1206 105.779 66.0535 105.576 66.0288C105.376 66.0005 105.34 66.0552 105.34 66.0552V104.059C105.733 104.006 106.056 103.814 106.056 103.814ZM128.219 73.178C126.683 69.6016 124.925 66.6748 123.441 66.0764L127.076 85.4411H119.747L123.386 66.0764C121.898 66.6748 120.142 69.6016 118.604 73.178C115.282 80.9115 113.853 89.0616 114.475 97.4623C114.708 100.573 115.268 103.125 116.253 104.059L119.642 86.0165H127.185L130.573 104.059C131.556 103.125 132.118 100.573 132.35 97.4623C132.976 89.0616 131.545 80.9115 128.219 73.178ZM52.8748 73.178C51.3372 69.6016 49.5792 66.6748 48.0949 66.0764L48.1109 66.17L44.7317 100.437L41.3116 66.1047L41.2992 66.1718L41.3134 66.087C39.8291 66.6907 38.0711 69.6175 36.5335 73.1903C33.2112 80.922 31.7803 89.0686 32.4042 97.4658C32.6371 100.573 33.1988 103.125 34.1836 104.059L40.9206 68.1806L44.4313 103.441L44.4864 103.981H44.977L45.0321 103.441L48.5037 68.2565L55.2248 104.059C56.2113 103.125 56.7713 100.573 57.0041 97.4623C57.628 89.0616 56.1971 80.9115 52.8748 73.178ZM138.375 66.4877V66.3059H138.22C138.177 66.2618 138.151 66.2318 138.151 66.2318V66.3059H137.793V104.059H138.375V89.4128C138.41 89.3669 138.455 89.3193 138.494 89.2734C139.905 91.2063 142.424 95.3811 142.316 100.509V104.082H142.904V100.361C143.018 94.9592 140.22 90.6185 138.865 88.8409C147.513 78.2548 139.804 68.1859 138.375 66.4877ZM101.015 103.183C100.789 103.741 100.502 104.188 100.18 104.322C99.8616 104.188 99.5718 103.741 99.3479 103.183C98.7382 101.674 98.7115 100.14 99.2288 98.6115C99.467 97.9089 99.8011 97.3123 100.18 97.1499C100.562 97.3123 100.894 97.9089 101.134 98.6115C101.652 100.14 101.625 101.674 101.015 103.183ZM100.294 99.217C100.265 98.7121 100.226 98.2867 100.18 98.1702C100.135 98.2867 100.096 98.7121 100.068 99.217C100.009 100.311 100.011 101.406 100.082 102.488C100.11 102.887 100.144 103.205 100.18 103.303C100.219 103.205 100.251 102.887 100.279 102.488C100.352 101.406 100.354 100.311 100.294 99.217ZM1.12411 61.5945H1.61294V60.0887C1.72493 60.1152 1.86003 60.1223 2.00757 60.1223C2.48574 60.1223 2.90703 59.9828 3.16478 59.7075C3.35676 59.5115 3.45807 59.245 3.45807 58.9043C3.45807 58.5689 3.33364 58.2953 3.12567 58.117C2.89991 57.9157 2.54618 57.8045 2.06268 57.8045C1.66983 57.8045 1.36053 57.8381 1.12411 57.8787V61.5945ZM1.61294 58.2282C1.69649 58.2052 1.86003 58.1894 2.07334 58.1894C2.61373 58.1894 2.96924 58.4294 2.96924 58.9272C2.96924 59.4462 2.60839 59.7304 2.01824 59.7304C1.8547 59.7304 1.7196 59.7198 1.61294 59.6916V58.2282ZM10.3764 60.4118L10.7799 61.5945H11.3043L10.0102 57.8328H9.42008L8.13311 61.5945H8.63795L9.03256 60.4118H10.3764ZM9.13389 60.0323L9.50362 58.9431C9.57651 58.7154 9.63872 58.4859 9.69561 58.2617H9.70627C9.76315 58.4789 9.81826 58.703 9.90358 58.9484L10.2751 60.0323H9.13389ZM17.0957 61.5945V59.9864C17.0957 59.3615 17.0832 58.9113 17.0548 58.4365L17.0726 58.4294C17.2628 58.8372 17.517 59.2679 17.78 59.6845L18.9835 61.5945H19.4794V57.8328H19.019V59.4074C19.019 59.9917 19.0297 60.4506 19.0741 60.9537L19.0635 60.959C18.8821 60.5724 18.6635 60.177 18.3826 59.7357L17.1686 57.8328H16.6353V61.5945H17.0957ZM27.0643 60.4118L27.4714 61.5945H27.9922L26.6999 57.8328H26.1098L24.821 61.5945H25.3276L25.7205 60.4118H27.0643ZM25.8218 60.0323L26.1933 58.9431C26.2662 58.7154 26.3284 58.4859 26.3853 58.2617H26.396C26.4529 58.4789 26.5097 58.703 26.5933 58.9484L26.9648 60.0323H25.8218ZM33.133 61.4127C33.3356 61.5451 33.7356 61.658 34.1 61.658C34.9941 61.658 35.4279 61.1479 35.4279 60.5671C35.4279 60.0146 35.1008 59.7075 34.4591 59.4621C33.9365 59.2626 33.7071 59.0879 33.7071 58.7383C33.7071 58.4789 33.9027 58.1717 34.4217 58.1717C34.763 58.1717 35.0172 58.2847 35.1399 58.3518L35.275 57.9546C35.1061 57.861 34.8253 57.771 34.4377 57.771C33.7001 57.771 33.2112 58.2052 33.2112 58.7931C33.2112 59.3226 33.5934 59.6404 34.212 59.8593C34.7239 60.0534 34.9266 60.2547 34.9266 60.6077C34.9266 60.9872 34.6333 61.2503 34.1338 61.2503C33.7978 61.2503 33.4743 61.1373 33.2574 61.0049L33.133 61.4127ZM40.8726 57.8328V61.5945H41.3614V57.8328H40.8726ZM48.9481 60.4118L49.3516 61.5945H49.876L48.582 57.8328H47.9918L46.7048 61.5945H47.2097L47.6043 60.4118H48.9481ZM47.7056 60.0323L48.0771 58.9431C48.15 58.7154 48.2104 58.4859 48.2673 58.2617H48.2798C48.3349 58.4789 48.3917 58.703 48.4753 58.9484L48.8468 60.0323H47.7056ZM55.6674 61.5945V59.9864C55.6674 59.3615 55.6567 58.9113 55.6301 58.4365L55.6461 58.4294C55.8363 58.8372 56.0904 59.2679 56.3535 59.6845L57.5569 61.5945H58.0529V57.8328H57.5907V59.4074C57.5907 59.9917 57.6032 60.4506 57.6476 60.9537L57.6352 60.959C57.4574 60.5724 57.237 60.177 56.9543 59.7357L55.7403 57.8328H55.207V61.5945H55.6674ZM69.6498 61.5945H70.1387V59.9652H70.6008C71.0434 59.9828 71.2461 60.177 71.3581 60.696C71.4665 61.1655 71.5501 61.485 71.6123 61.5945H72.1189C72.0389 61.4497 71.9482 61.0879 71.8256 60.5618C71.7349 60.1717 71.5607 59.9034 71.2692 59.8028V59.7869C71.6692 59.6527 71.9838 59.3226 71.9838 58.8248C71.9838 58.5353 71.8754 58.2776 71.6852 58.1117C71.4487 57.8999 71.1128 57.8045 70.5884 57.8045C70.2506 57.8045 69.8969 57.8328 69.6498 57.8822V61.5945ZM70.1387 58.2229C70.2187 58.1999 70.3857 58.1788 70.6239 58.1788C71.1394 58.1841 71.4932 58.3959 71.4932 58.8813C71.4932 59.312 71.1625 59.5962 70.6382 59.5962H70.1387V58.2229ZM79.4105 59.4285H77.9387V58.2388H79.4958V57.8328H77.4498V61.5945H79.5812V61.1867H77.9387V59.831H79.4105V59.4285ZM84.8001 61.4127C85.001 61.5451 85.4027 61.658 85.7672 61.658C86.6595 61.658 87.0932 61.1479 87.0932 60.5671C87.0932 60.0146 86.7679 59.7075 86.1262 59.4621C85.6036 59.2626 85.3725 59.0879 85.3725 58.7383C85.3725 58.4789 85.568 58.1717 86.0871 58.1717C86.4302 58.1717 86.6844 58.2847 86.807 58.3518L86.9421 57.9546C86.7715 57.861 86.4924 57.771 86.1049 57.771C85.3654 57.771 84.8766 58.2052 84.8766 58.7931C84.8766 59.3226 85.2605 59.6404 85.8774 59.8593C86.3911 60.0534 86.5919 60.2547 86.5919 60.6077C86.5919 60.9872 86.3004 61.2503 85.8009 61.2503C85.4632 61.2503 85.1414 61.1373 84.9228 61.0049L84.8001 61.4127ZM93.2579 61.5945H93.752V58.2458H94.911V57.8328H92.106V58.2458H93.2579V61.5945ZM101.643 60.4118L102.048 61.5945H102.571L101.277 57.8328H100.688L99.4012 61.5945H99.9043L100.299 60.4118H101.643ZM100.4 60.0323L100.772 58.9431C100.846 58.7154 100.905 58.4859 100.962 58.2617H100.973C101.029 58.4789 101.086 58.703 101.17 58.9484L101.541 60.0323H100.4ZM107.738 57.8328V60.0499C107.738 61.215 108.325 61.658 109.101 61.658C109.919 61.658 110.534 61.1832 110.534 60.027V57.8328H110.038V60.0605C110.038 60.8919 109.679 61.2609 109.117 61.2609C108.609 61.2609 108.234 60.9043 108.234 60.0605V57.8328H107.738ZM116.158 61.5945H116.645V59.9652H117.108C117.55 59.9828 117.755 60.177 117.865 60.696C117.975 61.1655 118.055 61.485 118.119 61.5945H118.626C118.546 61.4497 118.457 61.0879 118.332 60.5618C118.244 60.1717 118.069 59.9034 117.776 59.8028V59.7869C118.174 59.6527 118.489 59.3226 118.489 58.8248C118.489 58.5353 118.382 58.2776 118.192 58.1117C117.954 57.8999 117.618 57.8045 117.095 57.8045C116.757 57.8045 116.406 57.8328 116.158 57.8822V61.5945ZM116.645 58.2229C116.724 58.1999 116.894 58.1788 117.129 58.1788C117.648 58.1841 118 58.3959 118 58.8813C118 59.312 117.669 59.5962 117.145 59.5962H116.645V58.2229ZM125.942 60.4118L126.346 61.5945H126.868L125.576 57.8328H124.988L123.699 61.5945H124.204L124.598 60.4118H125.942ZM124.7 60.0323L125.069 58.9431C125.144 58.7154 125.205 58.4859 125.26 58.2617H125.274C125.329 58.4789 125.384 58.703 125.471 58.9484L125.841 60.0323H124.7ZM132.663 61.5945V59.9864C132.663 59.3615 132.651 58.9113 132.622 58.4365L132.64 58.4294C132.83 58.8372 133.085 59.2679 133.348 59.6845L134.551 61.5945H135.047V57.8328H134.585V59.4074C134.585 59.9917 134.595 60.4506 134.642 60.9537L134.629 60.959C134.45 60.5724 134.229 60.177 133.95 59.7357L132.734 57.8328H132.201V61.5945H132.663ZM141.395 61.5945H141.889V58.2458H143.048V57.8328H140.241V58.2458H141.395V61.5945ZM2.57995 111.953L2.98346 113.132H3.50607L2.21555 109.381H1.62717L0.34375 113.132H0.848588L1.24144 111.953H2.57995ZM1.34098 111.574L1.71249 110.49C1.78359 110.26 1.84581 110.033 1.90091 109.81H1.91336C1.96846 110.027 2.02535 110.25 2.1089 110.495L2.4804 111.574H1.34098ZM14.6426 113.132H15.1368V109.792H16.2922V109.381H13.4943V109.792H14.6426V113.132ZM22.6951 111.953L23.0986 113.132H23.6212L22.3306 109.381H21.744L20.4589 113.132H20.9637L21.3565 111.953H22.6951ZM21.4561 111.574L21.8276 110.49C21.8987 110.26 21.9609 110.033 22.0178 109.81H22.0285C22.0853 110.027 22.1404 110.25 22.224 110.495L22.5955 111.574H21.4561ZM28.4384 112.951C28.6393 113.083 29.0375 113.194 29.4019 113.194C30.2942 113.194 30.7262 112.687 30.7262 112.108C30.7262 111.558 30.3991 111.252 29.7609 111.007C29.2401 110.808 29.009 110.634 29.009 110.283C29.009 110.027 29.2063 109.72 29.7218 109.72C30.0631 109.72 30.3155 109.833 30.4382 109.898L30.5733 109.503C30.4062 109.409 30.1253 109.319 29.7396 109.319C29.0037 109.319 28.5166 109.754 28.5166 110.338C28.5166 110.868 28.897 111.185 29.5156 111.401C30.024 111.597 30.2267 111.798 30.2267 112.147C30.2267 112.525 29.9351 112.788 29.4356 112.788C29.0997 112.788 28.7797 112.677 28.5611 112.543L28.4384 112.951ZM36.5619 113.132H37.0561V109.792H38.2098V109.381H35.4136V109.792H36.5619V113.132ZM45.041 110.973H43.571V109.789H45.1246V109.381H43.0839V113.132H45.2081V112.726H43.571V111.374H45.041V110.973ZM57.4681 109.319C56.4602 109.319 55.7136 110.1 55.7136 111.291C55.7136 112.426 56.414 113.194 57.4112 113.194C58.3764 113.194 59.1657 112.509 59.1657 111.219C59.1657 110.105 58.4991 109.319 57.4681 109.319ZM57.445 109.715C58.2573 109.715 58.6502 110.495 58.6502 111.24C58.6502 112.093 58.2129 112.799 57.4396 112.799C56.6717 112.799 56.2344 112.08 56.2344 111.279C56.2344 110.456 56.6379 109.715 57.445 109.715ZM64.2531 113.132H64.7402V111.436H66.1693V111.035H64.7402V109.789H66.2866V109.381H64.2531V113.132ZM77.5654 113.132H78.0596V109.792H79.2132V109.381H76.4171V109.792H77.5654V113.132ZM84.0873 109.381V113.132H84.5744V111.374H86.4017V113.132H86.8959V109.381H86.4017V110.95H84.5744V109.381H84.0873ZM94.1502 110.973H92.6819V109.789H94.2338V109.381H92.1949V113.132H94.3191V112.726H92.6819V111.374H94.1502V110.973ZM106.579 109.319C105.569 109.319 104.823 110.1 104.823 111.291C104.823 112.426 105.525 113.194 106.522 113.194C107.487 113.194 108.277 112.509 108.277 111.219C108.277 110.105 107.61 109.319 106.579 109.319ZM106.556 109.715C107.37 109.715 107.761 110.495 107.761 111.24C107.761 112.093 107.324 112.799 106.551 112.799C105.783 112.799 105.345 112.08 105.345 111.279C105.345 110.456 105.749 109.715 106.556 109.715ZM113.364 113.132H113.851V111.508H114.312C114.752 111.524 114.955 111.718 115.067 112.237C115.172 112.703 115.259 113.021 115.319 113.132H115.824C115.746 112.989 115.655 112.626 115.531 112.103C115.442 111.713 115.268 111.447 114.978 111.346V111.33C115.375 111.196 115.689 110.868 115.689 110.371C115.689 110.082 115.582 109.828 115.392 109.66C115.158 109.448 114.82 109.353 114.299 109.353C113.961 109.353 113.609 109.381 113.364 109.432V113.132ZM113.851 109.771C113.929 109.748 114.096 109.727 114.333 109.727C114.848 109.732 115.202 109.944 115.202 110.428C115.202 110.857 114.87 111.139 114.351 111.139H113.851V109.771ZM120.833 109.381V113.132H121.321V109.381H120.833ZM128.582 110.973H127.114V109.789H128.665V109.381H126.625V113.132H128.751V112.726H127.114V111.374H128.582V110.973ZM134.297 113.132V111.529C134.297 110.906 134.286 110.456 134.256 109.981L134.274 109.976C134.466 110.382 134.716 110.813 134.979 111.229L136.181 113.132H136.673V109.381H136.213V110.95C136.213 111.535 136.226 111.992 136.27 112.493L136.259 112.499C136.08 112.114 135.861 111.718 135.58 111.279L134.37 109.381H133.836V113.132H134.297ZM142.696 113.132H143.188V109.792H144.344V109.381H141.546V109.792H142.696V113.132Z" fill="url(#paint0_linear)"/><path d="M79.3868 8.61435C79.3868 8.61435 82.1189 5.56403 87.3361 3.89764C87.3361 3.89764 88.6906 7.42634 89.4248 13.3434L86.6002 14.7203C86.6002 14.7203 88.072 10.6779 86.5913 5.74407C86.5913 5.74407 83.5765 6.78733 80.3129 11.2287L79.3868 8.61435ZM81.6478 23.3399C89.4248 15.3187 95.369 16.5102 95.369 16.5102C93.0084 36.6128 76.9835 39.852 76.9835 39.852C99.589 38.3427 99.4823 12.1113 99.4823 12.1113C87.6632 12.572 81.7847 19.55 81.7847 19.55L81.6478 23.3399ZM97.4416 25.6224C101.63 25.0593 105.771 26.6356 105.771 26.6356C103.169 30.8422 99.4823 32.821 99.4823 32.821L102.286 34.1361C106.107 29.43 107.257 25.9807 107.257 25.9807C103.541 23.8289 98.51 23.0805 98.51 23.0805L97.4416 25.6224ZM72.3333 5.88882C72.3333 5.88882 83.445 16.0831 75.1312 36.9782C75.1312 36.9782 90.1429 18.2702 72.3333 0H72.3547C54.5433 18.2702 69.5568 36.9782 69.5568 36.9782C61.2412 16.0831 72.3547 5.88882 72.3547 5.88882H72.3333ZM65.2994 8.61435C65.2994 8.61435 62.5673 5.56403 57.3519 3.89764C57.3519 3.89764 55.9974 7.42634 55.2632 13.3434L58.0878 14.7203C58.0878 14.7203 56.6142 10.6779 58.0949 5.74407C58.0949 5.74407 61.1097 6.78733 64.3733 11.2287L65.2994 8.61435ZM62.9015 19.55C62.9015 19.55 57.0248 12.572 45.2057 12.1113C45.2057 12.1113 45.099 38.3427 67.7027 39.852C67.7027 39.852 51.6778 36.6128 49.319 16.5102C49.319 16.5102 55.2632 15.3187 63.0401 23.3399L62.9015 19.55ZM46.178 23.0805C46.178 23.0805 41.1457 23.8289 37.4288 25.9807C37.4288 25.9807 38.5789 29.43 42.4007 34.1361L45.2057 32.821C45.2057 32.821 41.5172 30.8422 38.9166 26.6356C38.9166 26.6356 43.0566 25.0593 47.2463 25.6224L46.178 23.0805ZM78.194 43.2818C96.9599 53.6879 109.583 36.6657 109.583 36.6657C106.797 36.9817 102.433 35.047 102.433 35.047C97.7563 32.3321 93.9629 31.829 93.9629 31.829L93.0528 33.0064C95.6961 33.7548 101.754 38.6781 101.754 38.6781C93.0652 46.5051 84.0423 45.0524 79.3228 43.4248H79.3245C78.6882 43.1035 77.6447 42.6375 77.2501 42.8211C76.2636 43.2801 74.5304 43.8961 72.3333 43.8926H72.3547C70.1576 43.8961 68.4226 43.2801 67.4361 42.8211C67.0432 42.6375 66.0034 43.1018 65.367 43.423C60.6493 45.0523 51.6227 46.5069 42.9321 38.6781C42.9321 38.6781 48.9919 33.7548 51.6352 33.0064L50.7251 31.829C50.7251 31.829 46.9299 32.3321 42.2531 35.047C42.2531 35.047 37.8892 36.9817 35.1055 36.6657C35.1055 36.6657 47.7263 53.6897 66.494 43.2801C66.8264 43.1635 67.1001 43.0929 67.1837 43.1724C68.979 44.9023 70.7602 45.5007 72.3547 45.4901H72.3333C73.926 45.5007 75.7072 44.9023 77.5043 43.1724C77.5861 43.0929 77.8598 43.1635 78.1922 43.2801L78.194 43.2818Z" fill="url(#paint1_linear)"/><defs><linearGradient id="paint0_linear" x1=".344" y1="85.482" x2="144.344" y2="85.482" gradientUnits="userSpaceOnUse"><stop stop-color="#CBAB7E"/><stop offset=".271" stop-color="#AC8C62"/><stop offset=".58" stop-color="#F7D4A3"/><stop offset=".62" stop-color="#F7D4A3"/><stop offset=".659" stop-color="#F7D4A3"/><stop offset="1" stop-color="#AC8C62"/></linearGradient><linearGradient id="paint1_linear" x1="35.105" y1="23.325" x2="109.583" y2="23.325" gradientUnits="userSpaceOnUse"><stop stop-color="#CBAB7E"/><stop offset=".271" stop-color="#AC8C62"/><stop offset=".58" stop-color="#F7D4A3"/><stop offset=".62" stop-color="#F7D4A3"/><stop offset=".659" stop-color="#F7D4A3"/><stop offset="1" stop-color="#AC8C62"/></linearGradient></defs></svg>