<svg width="109" height="92" viewBox="0 0 109 92" fill="none" xmlns="http://www.w3.org/2000/svg"><path d="M0.544946 83.6834V53.1211C0.544946 53.1211 0.573197 53.0771 0.725242 53.0998C0.879978 53.1197 0.962057 53.1736 0.962057 53.1736C1.60118 53.4646 2.14613 54.3803 2.59688 55.5727C3.81189 58.7852 3.86706 62.0545 2.83369 65.304C2.3789 66.7392 1.7492 67.9487 1.03337 68.3561L0.910926 68.4171L1.03337 68.4782C1.7492 68.8856 2.3789 70.0951 2.83369 71.5331C3.86706 74.7825 3.81189 78.0533 2.59688 81.2644C2.17035 82.3915 1.61195 83.1255 1.08854 83.486C1.08854 83.486 0.844999 83.6408 0.544946 83.6834ZM47.8847 83.486C48.4081 83.1255 48.9665 82.3915 49.3944 81.2644C50.6094 78.0533 50.6632 74.7825 49.6312 71.5331C49.1764 70.0951 48.5454 68.8856 47.8295 68.4782L47.7071 68.4171L47.8295 68.3561C48.5454 67.9487 49.1764 66.7392 49.6312 65.304C50.6632 62.0545 50.6094 58.7852 49.3944 55.5727C48.9423 54.3803 48.396 53.4646 47.7596 53.1736C47.7596 53.1736 47.6761 53.1197 47.5228 53.0998C47.3694 53.0771 47.3425 53.1211 47.3425 53.1211V83.6834C47.6412 83.6408 47.8847 83.486 47.8847 83.486ZM60.9296 78.8355C60.3295 81.219 59.5639 83.1113 58.7108 83.6933C57.8605 83.1113 57.0922 81.219 56.4934 78.8355C54.8734 72.4104 54.8007 65.869 56.1759 59.3701C56.8123 56.3649 57.7003 53.8309 58.7108 53.1438C59.7227 53.8309 60.6094 56.3649 61.2472 59.3701C62.6223 65.869 62.5496 72.4104 60.9296 78.8355ZM58.8817 59.9791C58.8387 57.1783 58.7795 54.8147 58.7108 54.1744C58.6422 54.8147 58.5844 57.1783 58.5413 59.9791C58.4485 66.0422 58.4538 72.1421 58.5628 78.1328C58.6005 80.353 58.653 82.1218 58.7108 82.6641C58.77 82.1218 58.8212 80.353 58.8602 78.1328C58.9692 72.1421 58.9746 66.0422 58.8817 59.9791ZM71.9778 78.8355C71.3777 81.219 70.6107 83.1113 69.759 83.6933C68.9073 83.1113 68.1403 81.219 67.5415 78.8355C65.9202 72.4104 65.8475 65.869 67.2253 59.3701C67.8604 56.3649 68.7485 53.8309 69.759 53.1438C70.7695 53.8309 71.6575 56.3649 72.294 59.3701C73.6704 65.869 73.5978 72.4104 71.9778 78.8355ZM69.9298 59.9791C69.8881 57.1783 69.8289 54.8147 69.759 54.1744C69.6917 54.8147 69.6312 57.1783 69.5894 59.9791C69.4979 66.0422 69.5006 72.1421 69.6096 78.1328C69.65 80.353 69.7011 82.1218 69.759 82.6641C69.8182 82.1218 69.868 80.353 69.9083 78.1328C70.0187 72.1421 70.0213 66.0422 69.9298 59.9791ZM17.8673 58.8491C16.7034 55.973 15.3727 53.6194 14.2478 53.1381L17.0008 68.711H11.4532L14.2061 53.1381C13.0812 53.6194 11.7505 55.973 10.5866 58.8491C8.07184 65.0683 6.98868 71.6225 7.46231 78.3784C7.63723 80.8797 8.06107 82.9324 8.80784 83.6834L11.3711 69.1738H17.0828L19.6461 83.6834C20.3888 82.9324 20.8167 80.8797 20.9903 78.3784C21.4639 71.6225 20.3821 65.0683 17.8673 58.8491ZM80.0186 83.486C80.5421 83.1255 81.1004 82.3915 81.5256 81.2644C82.742 78.0533 82.7972 74.7825 81.7638 71.5331C81.309 70.0951 80.6793 68.8856 79.9635 68.4782L79.841 68.4171L79.9635 68.3561C80.6793 67.9487 81.309 66.7392 81.7638 65.304C82.7972 62.0545 82.742 58.7852 81.5256 55.5727C81.0762 54.3803 80.5313 53.4646 79.8922 53.1736C79.8922 53.1736 79.8087 53.1197 79.6553 53.0998C79.5033 53.0771 79.4764 53.1211 79.4764 53.1211V83.6834C79.7738 83.6408 80.0186 83.486 80.0186 83.486ZM96.7947 58.8491C95.6322 55.973 94.3014 53.6194 93.1779 53.1381L95.9295 68.711H90.3819L93.1362 53.1381C92.01 53.6194 90.6806 55.973 89.5167 58.8491C87.0019 65.0683 85.9201 71.6225 86.3911 78.3784C86.5673 80.8797 86.9912 82.9324 87.7366 83.6834L90.3025 69.1738H96.0116L98.5762 83.6834C99.3203 82.9324 99.7454 80.8797 99.9217 78.3784C100.395 71.6225 99.3122 65.0683 96.7947 58.8491ZM39.7631 58.8491C38.5992 55.973 37.2685 53.6194 36.145 53.1381L36.1571 53.2134L33.5992 80.7704L31.0104 53.1609L31.001 53.2148L31.0118 53.1466C29.8883 53.6321 28.5575 55.9858 27.3936 58.8591C24.8788 65.0768 23.7957 71.6282 24.268 78.3812C24.4442 80.8797 24.8694 82.9324 25.6149 83.6834L30.7144 54.8303L33.3718 83.1865L33.4135 83.6209H33.7849L33.8266 83.1865L36.4544 54.8913L41.5419 83.6834C42.2887 82.9324 42.7125 80.8797 42.8887 78.3784C43.361 71.6225 42.2779 65.0683 39.7631 58.8491ZM104.482 53.4689V53.3227H104.365C104.332 53.2872 104.312 53.2631 104.312 53.2631V53.3227H104.042V83.6834H104.482V71.905C104.509 71.8681 104.542 71.8298 104.572 71.7929C105.64 73.3474 107.547 76.7047 107.465 80.8286V83.7018H107.91V80.7093C107.996 76.3654 105.878 72.8746 104.853 71.4451C111.399 62.9318 105.564 54.8345 104.482 53.4689ZM76.2027 82.9792C76.0318 83.4278 75.8139 83.787 75.5703 83.8949C75.3295 83.787 75.1102 83.4278 74.9406 82.9792C74.4791 81.7655 74.4589 80.5319 74.8505 79.3025C75.0308 78.7375 75.2837 78.2577 75.5703 78.1271C75.8596 78.2577 76.1112 78.7375 76.2929 79.3025C76.6844 80.5319 76.6642 81.7655 76.2027 82.9792ZM75.6564 79.7894C75.6349 79.3834 75.6053 79.0413 75.5703 78.9476C75.5367 79.0413 75.5071 79.3834 75.4855 79.7894C75.4411 80.6696 75.4425 81.5497 75.4963 82.4199C75.5179 82.7408 75.5434 82.9963 75.5703 83.0758C75.5999 82.9963 75.6241 82.7408 75.6457 82.4199C75.7008 81.5497 75.7022 80.6696 75.6564 79.7894ZM0.590689 49.5338H0.96071V48.3229C1.04548 48.3442 1.14774 48.3499 1.25942 48.3499C1.62137 48.3499 1.94026 48.2377 2.13536 48.0163C2.28068 47.8587 2.35737 47.6443 2.35737 47.3704C2.35737 47.1006 2.26318 46.8806 2.10576 46.7372C1.93487 46.5754 1.66712 46.486 1.30113 46.486C1.00377 46.486 0.769645 46.5129 0.590689 46.5456V49.5338ZM0.96071 46.8267C1.02395 46.8082 1.14774 46.7954 1.30921 46.7954C1.71825 46.7954 1.98735 46.9885 1.98735 47.3888C1.98735 47.8062 1.71421 48.0347 1.26749 48.0347C1.14371 48.0347 1.04144 48.0262 0.96071 48.0035V46.8267ZM7.59417 48.5827L7.89961 49.5338H8.29654L7.31699 46.5087H6.87028L5.89611 49.5338H6.27824L6.57695 48.5827H7.59417ZM6.65364 48.2775L6.93352 47.4016C6.98868 47.2185 7.03578 47.0339 7.07884 46.8536H7.08691C7.12997 47.0282 7.17168 47.2085 7.23626 47.4058L7.51748 48.2775H6.65364ZM12.6803 49.5338V48.2406C12.6803 47.738 12.6709 47.376 12.6493 46.9942L12.6628 46.9885C12.8068 47.3164 12.9992 47.6628 13.1983 47.9978L14.1092 49.5338H14.4846V46.5087H14.1361V47.7749C14.1361 48.2448 14.1442 48.6139 14.1779 49.0185L14.1698 49.0228C14.0325 48.7119 13.867 48.3939 13.6544 48.039L12.7354 46.5087H12.3318V49.5338H12.6803ZM20.226 48.5827L20.5341 49.5338H20.9284L19.9502 46.5087H19.5035L18.5279 49.5338H18.9114L19.2088 48.5827H20.226ZM19.2855 48.2775L19.5667 47.4016C19.6219 47.2185 19.6689 47.0339 19.712 46.8536H19.7201C19.7631 47.0282 19.8062 47.2085 19.8694 47.4058L20.1507 48.2775H19.2855ZM24.8196 49.3876C24.973 49.4941 25.2758 49.5849 25.5516 49.5849C26.2284 49.5849 26.5567 49.1746 26.5567 48.7076C26.5567 48.2633 26.3091 48.0163 25.8234 47.8189C25.4278 47.6585 25.2542 47.518 25.2542 47.2369C25.2542 47.0282 25.4023 46.7812 25.7951 46.7812C26.0535 46.7812 26.2459 46.8721 26.3387 46.926L26.441 46.6066C26.3132 46.5314 26.1006 46.459 25.8073 46.459C25.2489 46.459 24.8788 46.8082 24.8788 47.2809C24.8788 47.7068 25.1681 47.9623 25.6364 48.1383C26.0239 48.2945 26.1773 48.4563 26.1773 48.7403C26.1773 49.0455 25.9553 49.257 25.5772 49.257C25.3229 49.257 25.078 49.1661 24.9138 49.0597L24.8196 49.3876ZM30.6781 46.5087V49.5338H31.0481V46.5087H30.6781ZM36.7908 48.5827L37.0962 49.5338H37.4932L36.5136 46.5087H36.0669L35.0928 49.5338H35.4749L35.7736 48.5827H36.7908ZM35.8503 48.2775L36.1315 47.4016C36.1867 47.2185 36.2324 47.0339 36.2755 46.8536H36.2849C36.3266 47.0282 36.3697 47.2085 36.4329 47.4058L36.7141 48.2775H35.8503ZM41.8769 49.5338V48.2406C41.8769 47.738 41.8688 47.376 41.8487 46.9942L41.8608 46.9885C42.0047 47.3164 42.1972 47.6628 42.3963 47.9978L43.3072 49.5338H43.6826V46.5087H43.3328V47.7749C43.3328 48.2448 43.3422 48.6139 43.3758 49.0185L43.3664 49.0228C43.2319 48.7119 43.065 48.3939 42.8511 48.039L41.9321 46.5087H41.5284V49.5338H41.8769ZM52.4608 49.5338H52.8309V48.2235H53.1807C53.5157 48.2377 53.6691 48.3939 53.7539 48.8112C53.836 49.1888 53.8992 49.4458 53.9463 49.5338H54.3298C54.2692 49.4174 54.2006 49.1264 54.1078 48.7033C54.0392 48.3896 53.9073 48.1738 53.6866 48.0929V48.0801C53.9894 47.9723 54.2275 47.7068 54.2275 47.3065C54.2275 47.0737 54.1455 46.8664 54.0015 46.733C53.8225 46.5626 53.5682 46.486 53.1713 46.486C52.9156 46.486 52.6479 46.5087 52.4608 46.5484V49.5338ZM52.8309 46.8224C52.8914 46.8039 53.0179 46.7869 53.1982 46.7869C53.5884 46.7912 53.8562 46.9615 53.8562 47.3519C53.8562 47.6983 53.6059 47.9268 53.209 47.9268H52.8309V46.8224ZM59.8492 47.792H58.7351V46.8352H59.9137V46.5087H58.365V49.5338H59.9783V49.2059H58.7351V48.1156H59.8492V47.792ZM63.9288 49.3876C64.0808 49.4941 64.3849 49.5849 64.6608 49.5849C65.3362 49.5849 65.6645 49.1746 65.6645 48.7076C65.6645 48.2633 65.4183 48.0163 64.9326 47.8189C64.537 47.6585 64.3621 47.518 64.3621 47.2369C64.3621 47.0282 64.5101 46.7812 64.903 46.7812C65.1626 46.7812 65.3551 46.8721 65.4479 46.926L65.5502 46.6066C65.421 46.5314 65.2097 46.459 64.9164 46.459C64.3567 46.459 63.9867 46.8082 63.9867 47.2809C63.9867 47.7068 64.2773 47.9623 64.7442 48.1383C65.133 48.2945 65.2851 48.4563 65.2851 48.7403C65.2851 49.0455 65.0644 49.257 64.6863 49.257C64.4307 49.257 64.1871 49.1661 64.0216 49.0597L63.9288 49.3876ZM70.3308 49.5338H70.7049V46.8409H71.5822V46.5087H69.4589V46.8409H70.3308V49.5338ZM76.6777 48.5827L76.9845 49.5338H77.3801L76.4005 46.5087H75.9551L74.981 49.5338H75.3618L75.6605 48.5827H76.6777ZM75.7372 48.2775L76.0184 47.4016C76.0749 47.2185 76.1193 47.0339 76.1624 46.8536H76.1704C76.2135 47.0282 76.2565 47.2085 76.3198 47.4058L76.601 48.2775H75.7372ZM81.2915 46.5087V48.2917C81.2915 49.2286 81.7355 49.5849 82.3235 49.5849C82.9425 49.5849 83.408 49.203 83.408 48.2732V46.5087H83.0326V48.3002C83.0326 48.9688 82.7608 49.2655 82.3356 49.2655C81.9508 49.2655 81.6669 48.9787 81.6669 48.3002V46.5087H81.2915ZM87.6653 49.5338H88.034V48.2235H88.3838C88.7188 48.2377 88.8736 48.3939 88.957 48.8112C89.0404 49.1888 89.101 49.4458 89.1494 49.5338H89.5329C89.4723 49.4174 89.405 49.1264 89.3109 48.7033C89.2436 48.3896 89.1117 48.1738 88.8897 48.0929V48.0801C89.1911 47.9723 89.4293 47.7068 89.4293 47.3065C89.4293 47.0737 89.3485 46.8664 89.2046 46.733C89.0243 46.5626 88.77 46.486 88.3744 46.486C88.1187 46.486 87.8523 46.5087 87.6653 46.5484V49.5338ZM88.034 46.8224C88.0932 46.8039 88.2223 46.7869 88.3999 46.7869C88.7928 46.7912 89.0592 46.9615 89.0592 47.3519C89.0592 47.6983 88.809 47.9268 88.4121 47.9268H88.034V46.8224ZM95.0711 48.5827L95.3765 49.5338H95.7721L94.7939 46.5087H94.3485L93.373 49.5338H93.7551L94.0539 48.5827H95.0711ZM94.1306 48.2775L94.4104 47.4016C94.4669 47.2185 94.5127 47.0339 94.5544 46.8536H94.5652C94.6069 47.0282 94.6486 47.2085 94.7145 47.4058L94.9944 48.2775H94.1306ZM100.159 49.5338V48.2406C100.159 47.738 100.149 47.376 100.128 46.9942L100.141 46.9885C100.285 47.3164 100.477 47.6628 100.677 47.9978L101.587 49.5338H101.963V46.5087H101.613V47.7749C101.613 48.2448 101.621 48.6139 101.656 49.0185L101.647 49.0228C101.511 48.7119 101.344 48.3939 101.133 48.039L100.212 46.5087H99.8087V49.5338H100.159ZM106.768 49.5338H107.142V46.8409H108.019V46.5087H105.895V46.8409H106.768V49.5338ZM1.69268 90.0317L1.99812 90.98H2.3937L1.41685 87.9634H0.971476L0 90.98H0.382134L0.679499 90.0317H1.69268ZM0.754848 89.7265L1.03606 88.8549C1.08988 88.6704 1.13697 88.4872 1.17869 88.3084H1.1881C1.22982 88.483 1.27288 88.6618 1.33612 88.8592L1.61733 89.7265H0.754848ZM10.8234 90.98H11.1975V88.2942H12.0721V87.9634H9.95423V88.2942H10.8234V90.98ZM16.9187 90.0317L17.2241 90.98H17.6197L16.6429 87.9634H16.1988L15.226 90.98H15.6081L15.9055 90.0317H16.9187ZM15.9809 89.7265L16.2621 88.8549C16.3159 88.6704 16.363 88.4872 16.406 88.3084H16.4141C16.4572 88.483 16.4989 88.6618 16.5621 88.8592L16.8433 89.7265H15.9809ZM21.2661 90.8338C21.4181 90.9403 21.7195 91.0297 21.9954 91.0297C22.6708 91.0297 22.9978 90.6223 22.9978 90.1567C22.9978 89.7138 22.7502 89.4682 22.2672 89.2708C21.8729 89.1104 21.698 88.9713 21.698 88.6888C21.698 88.483 21.8474 88.236 22.2376 88.236C22.4959 88.236 22.687 88.3268 22.7798 88.3793L22.8821 88.0614C22.7556 87.9861 22.543 87.9137 22.251 87.9137C21.694 87.9137 21.3253 88.2629 21.3253 88.7328C21.3253 89.1587 21.6132 89.4142 22.0815 89.5874C22.4663 89.745 22.6197 89.9068 22.6197 90.1879C22.6197 90.4917 22.399 90.7032 22.0209 90.7032C21.7666 90.7032 21.5244 90.6138 21.3589 90.5059L21.2661 90.8338ZM27.4152 90.98H27.7892V88.2942H28.6625V87.9634H26.546V88.2942H27.4152V90.98ZM33.8333 89.2439H32.7206V88.2913H33.8966V87.9634H32.3519V90.98H33.9598V90.6535H32.7206V89.5661H33.8333V89.2439ZM43.2399 87.9137C42.477 87.9137 41.9119 88.5412 41.9119 89.4994C41.9119 90.4122 42.442 91.0297 43.1969 91.0297C43.9275 91.0297 44.5249 90.4789 44.5249 89.4412C44.5249 88.5454 44.0203 87.9137 43.2399 87.9137ZM43.2224 88.2317C43.8374 88.2317 44.1347 88.8592 44.1347 89.4582C44.1347 90.1439 43.8037 90.7117 43.2184 90.7117C42.6371 90.7117 42.3061 90.1339 42.3061 89.4895C42.3061 88.8279 42.6116 88.2317 43.2224 88.2317ZM48.3758 90.98H48.7445V89.6158H49.8263V89.2935H48.7445V88.2913H49.9151V87.9634H48.3758V90.98ZM58.4525 90.98H58.8265V88.2942H59.6998V87.9634H57.5833V88.2942H58.4525V90.98ZM63.3892 87.9634V90.98H63.7579V89.5661H65.1411V90.98H65.5152V87.9634H65.1411V89.2254H63.7579V87.9634H63.3892ZM71.0063 89.2439H69.8949V88.2913H71.0695V87.9634H69.5262V90.98H71.1341V90.6535H69.8949V89.5661H71.0063V89.2439ZM80.4142 87.9137C79.65 87.9137 79.0848 88.5412 79.0848 89.4994C79.0848 90.4122 79.6163 91.0297 80.3712 91.0297C81.1018 91.0297 81.6992 90.4789 81.6992 89.4412C81.6992 88.5454 81.1946 87.9137 80.4142 87.9137ZM80.3967 88.2317C81.013 88.2317 81.309 88.8592 81.309 89.4582C81.309 90.1439 80.978 90.7117 80.3927 90.7117C79.8114 90.7117 79.4804 90.1339 79.4804 89.4895C79.4804 88.8279 79.7859 88.2317 80.3967 88.2317ZM85.5501 90.98H85.9188V89.674H86.2673C86.601 89.6868 86.7544 89.8429 86.8391 90.2603C86.9185 90.6351 86.9844 90.8906 87.0302 90.98H87.4123C87.3531 90.865 87.2845 90.5726 87.1903 90.1524C87.123 89.8387 86.9912 89.6243 86.7719 89.5434V89.5306C87.0719 89.4227 87.3101 89.1587 87.3101 88.7598C87.3101 88.527 87.2293 88.3226 87.0854 88.1877C86.9077 88.0174 86.6521 87.9407 86.2579 87.9407C86.0022 87.9407 85.7358 87.9634 85.5501 88.0046V90.98ZM85.9188 88.2771C85.978 88.2587 86.1045 88.2416 86.2834 88.2416C86.6736 88.2459 86.9414 88.4163 86.9414 88.8052C86.9414 89.1502 86.6898 89.3773 86.2969 89.3773H85.9188V88.2771ZM91.204 87.9634V90.98H91.5727V87.9634H91.204ZM97.0692 89.2439H95.9578V88.2913H97.1324V87.9634H95.5878V90.98H97.197V90.6535H95.9578V89.5661H97.0692V89.2439ZM101.395 90.98V89.691C101.395 89.1899 101.387 88.8279 101.364 88.4461L101.378 88.4418C101.523 88.7683 101.713 89.1147 101.912 89.4497L102.821 90.98H103.194V87.9634H102.846V89.2254C102.846 89.6953 102.855 90.063 102.889 90.4661L102.881 90.4704C102.745 90.1609 102.579 89.8429 102.367 89.4895L101.45 87.9634H101.047V90.98H101.395ZM107.753 90.98H108.125V88.2942H109V87.9634H106.882V88.2942H107.753V90.98Z" fill="#072630"/><path d="M59.831 6.92757C59.831 6.92757 61.8991 4.47453 65.8482 3.13445C65.8482 3.13445 66.8735 5.97219 67.4292 10.7306L65.2911 11.8379C65.2911 11.8379 66.4052 8.58707 65.2844 4.61933C65.2844 4.61933 63.0024 5.4583 60.532 9.02998L59.831 6.92757ZM61.5425 18.7698C67.4292 12.3192 71.9286 13.2774 71.9286 13.2774C70.1418 29.4436 58.0118 32.0486 58.0118 32.0486C75.1229 30.8348 75.0422 9.73977 75.0422 9.73977C66.0958 10.1103 61.6461 15.7219 61.6461 15.7219L61.5425 18.7698ZM73.4975 20.6053C76.6676 20.1524 79.8027 21.4201 79.8027 21.4201C77.8328 24.803 75.0422 26.3943 75.0422 26.3943L77.1641 27.4519C80.057 23.6673 80.9275 20.8935 80.9275 20.8935C78.114 19.163 74.3062 18.5611 74.3062 18.5611L73.4975 20.6053ZM54.4919 4.73573C54.4919 4.73573 62.9028 12.9338 56.6098 29.7375C56.6098 29.7375 67.9728 14.6927 54.4919 0H54.5081C41.0259 14.6927 52.3902 29.7375 52.3902 29.7375C46.0958 12.9338 54.5081 4.73573 54.5081 4.73573H54.4919ZM49.1677 6.92757C49.1677 6.92757 47.0996 4.47453 43.1518 3.13445C43.1518 3.13445 42.1265 5.97219 41.5708 10.7306L43.7088 11.8379C43.7088 11.8379 42.5934 8.58707 43.7142 4.61933C43.7142 4.61933 45.9962 5.4583 48.4666 9.02998L49.1677 6.92757ZM47.3525 15.7219C47.3525 15.7219 42.9042 10.1103 33.9578 9.73977C33.9578 9.73977 33.8771 30.8348 50.9868 32.0486C50.9868 32.0486 38.8569 29.4436 37.0713 13.2774C37.0713 13.2774 41.5708 12.3192 47.4575 18.7698L47.3525 15.7219ZM34.6938 18.5611C34.6938 18.5611 30.8846 19.163 28.0711 20.8935C28.0711 20.8935 28.9417 23.6673 31.8345 27.4519L33.9578 26.3943C33.9578 26.3943 31.1658 24.803 29.1973 21.4201C29.1973 21.4201 32.3311 20.1524 35.5025 20.6053L34.6938 18.5611ZM58.9281 34.8068C73.1329 43.1753 82.6875 29.4862 82.6875 29.4862C80.579 29.7403 77.2758 28.1844 77.2758 28.1844C73.7357 26.0011 70.8643 25.5965 70.8643 25.5965L70.1754 26.5434C72.1762 27.1453 76.7618 31.1045 76.7618 31.1045C70.1848 37.399 63.3549 36.2307 59.7825 34.9218H59.7839C59.3022 34.6634 58.5124 34.2887 58.2136 34.4363C57.4669 34.8054 56.155 35.3008 54.4919 35.298H54.5081C52.845 35.3008 51.5317 34.8054 50.785 34.4363C50.4876 34.2887 49.7005 34.662 49.2188 34.9204C45.6478 36.2307 38.8152 37.4004 32.2369 31.1045C32.2369 31.1045 36.8238 27.1453 38.8246 26.5434L38.1357 25.5965C38.1357 25.5965 35.263 26.0011 31.7229 28.1844C31.7229 28.1844 28.4196 29.7403 26.3125 29.4862C26.3125 29.4862 35.8658 43.1767 50.0718 34.8054C50.3235 34.7117 50.5307 34.6549 50.5939 34.7188C51.9529 36.11 53.3011 36.5912 54.5081 36.5827H54.4919C55.6975 36.5912 57.0457 36.11 58.4061 34.7188C58.468 34.6549 58.6752 34.7117 58.9268 34.8054L58.9281 34.8068Z" fill="#072630"/></svg>