<svg width="14" height="14" viewBox="0 0 14 14" fill="none" xmlns="http://www.w3.org/2000/svg"><g clip-path="url(#clip0)" fill="#fff"><path d="M8.86614 0C8.73735 0 8.63281 0.104535 8.63281 0.233324C8.63281 0.362113 8.73735 0.466648 8.86614 0.466648C11.4393 0.466648 13.5328 2.56011 13.5328 5.13331C13.5328 5.2621 13.6373 5.36664 13.7661 5.36664C13.8952 5.36664 13.9995 5.2621 13.9995 5.13331C13.9995 2.30278 11.6967 0 8.86614 0Z"/><path d="M8.86614 1.3999C8.73735 1.3999 8.63281 1.50444 8.63281 1.63323C8.63281 1.76201 8.73735 1.86655 8.86614 1.86655C10.6675 1.86655 12.1328 3.33187 12.1328 5.13322C12.1328 5.26201 12.2373 5.36654 12.3661 5.36654C12.4952 5.36654 12.5995 5.26201 12.5995 5.13322C12.5995 3.07479 10.9248 1.3999 8.86614 1.3999Z"/><path d="M8.86614 2.80005C8.73735 2.80005 8.63281 2.90458 8.63281 3.03337C8.63281 3.16216 8.73735 3.2667 8.86614 3.2667C9.89538 3.2667 10.7328 4.10412 10.7328 5.13337C10.7328 5.26216 10.8373 5.36669 10.9661 5.36669C11.0952 5.36669 11.1995 5.26216 11.1995 5.13337C11.1995 3.84679 10.1527 2.80005 8.86614 2.80005Z"/><path d="M12.6263 8.7556C11.9914 8.67207 11.3654 8.51621 10.7657 8.29289C10.185 8.07518 9.52508 8.21565 9.08315 8.65175L8.34558 9.38768C6.79905 8.47582 5.50709 7.18643 4.59313 5.64293L5.33116 4.90654C5.76748 4.46625 5.90841 3.80708 5.69026 3.22772C5.46651 2.629 5.31041 2.00436 5.22641 1.36851C5.11462 0.580302 4.43213 -0.00326751 3.63437 -0.000232356H1.59295C1.54534 -0.000232356 1.49774 0.00209186 1.45062 0.00630279C1.02663 0.044584 0.642808 0.245478 0.370027 0.571689C0.0972741 0.898118 -0.032007 1.31112 0.00673907 1.73834C0.232844 3.86354 0.967843 5.93483 2.13102 7.72683C3.18708 9.38536 4.62372 10.8192 6.28387 11.872C8.07261 13.0298 10.1383 13.7632 12.2623 13.9935C12.3104 13.9977 12.3587 13.9997 12.4072 13.9997C12.4086 13.9997 12.41 13.9997 12.4116 13.9997C13.2909 13.996 14.003 13.2792 13.9995 12.4026V10.3681C14.0179 9.56153 13.429 8.86853 12.6263 8.7556ZM13.5328 10.3598C13.5328 10.3616 13.5328 10.3637 13.5328 10.3656V12.4037C13.5351 13.024 13.0314 13.5307 12.41 13.5333C12.3736 13.5319 12.3386 13.5319 12.3078 13.5291C10.2606 13.307 8.26508 12.5986 6.5354 11.479C4.93101 10.4615 3.54408 9.07733 2.52348 7.47433C1.39903 5.74211 0.689238 3.74151 0.471062 1.69262C0.443992 1.39348 0.535238 1.10183 0.728203 0.871047C0.921167 0.640267 1.19253 0.498189 1.4926 0.471118C1.52596 0.468083 1.55934 0.466443 1.59292 0.466443H3.63645C3.6402 0.466443 3.64392 0.466443 3.64766 0.466443C4.20673 0.466443 4.68577 0.880618 4.76391 1.43173C4.85234 2.10023 5.01684 2.75962 5.2532 3.39173C5.40745 3.80145 5.30781 4.26719 5.00049 4.5773L4.13624 5.43969C4.06156 5.51412 4.04617 5.62893 4.0982 5.7204C5.08706 7.4564 6.5293 8.8956 8.26834 9.88236C8.3598 9.93439 8.47413 9.91853 8.54834 9.84457L9.41166 8.9831C9.72362 8.67535 10.191 8.57618 10.6021 8.73018C11.2349 8.96585 11.8955 9.13035 12.563 9.21807C13.1301 9.29786 13.547 9.78857 13.5328 10.3598Z"/><path d="M3.50128 0.93335H1.59425C1.57465 0.93335 1.55529 0.934279 1.53593 0.936139C1.29817 0.957604 1.15279 1.09246 1.08746 1.17064C1.03496 1.23339 0.915035 1.40467 0.936035 1.63988C1.02425 2.46752 1.18382 3.27274 1.41086 4.03341C1.44118 4.13445 1.53382 4.20002 1.63439 4.20002C1.65657 4.20002 1.67896 4.19698 1.70136 4.19023C1.82479 4.15337 1.89503 4.02341 1.85815 3.89998C1.63929 3.16684 1.48529 2.38984 1.40058 1.59441C1.39522 1.53516 1.43372 1.48405 1.44561 1.46959C1.46475 1.44673 1.50744 1.4073 1.59425 1.40005H3.50082C3.50106 1.40005 3.50106 1.40005 3.50106 1.40005C3.62985 1.40005 3.73439 1.29576 3.73439 1.16695C3.73461 1.0381 3.63007 0.93335 3.50128 0.93335Z"/><path d="M12.834 10.2666C12.7052 10.2666 12.6007 10.3711 12.6007 10.4999L12.6004 12.4037C12.6007 12.4562 12.5806 12.5056 12.5439 12.5425C12.5073 12.5794 12.4588 12.5997 12.4126 12.5999L12.3911 12.5994C11.5938 12.5129 10.8234 12.3593 10.1012 12.143C9.97823 12.1059 9.84781 12.1762 9.8107 12.2996C9.77359 12.423 9.84384 12.553 9.96727 12.5901C10.7165 12.8146 11.5152 12.9737 12.3449 13.0638C12.3641 13.0656 12.403 13.0666 12.4087 13.0666C12.5853 13.0659 12.7509 12.9966 12.8753 12.8713C12.9997 12.7457 13.0678 12.5791 13.0671 12.4027L13.0673 10.4999C13.0673 10.3711 12.9628 10.2666 12.834 10.2666Z"/></g><defs><clipPath id="clip0"><path fill="#fff" d="M0 0H14V14H0z"/></clipPath></defs></svg>