<svg width="17" height="17" viewBox="0 0 17 17" fill="none" xmlns="http://www.w3.org/2000/svg"><g clip-path="url(#clip0)" fill="#fff"><path d="M17 3.43996C17 3.30213 16.8883 3.19041 16.7505 3.19041C16.6126 3.19041 16.5009 3.30213 16.5009 3.43996C16.5009 4.71234 15.4657 5.74751 14.1933 5.74751C12.9209 5.74751 11.8858 4.71234 11.8858 3.43996C11.8858 2.16758 12.9209 1.13241 14.1933 1.13241C15.0743 1.13241 15.8661 1.62249 16.2596 2.41139C16.3212 2.53474 16.4711 2.58485 16.5943 2.52329C16.7177 2.46176 16.7678 2.31192 16.7062 2.1886C16.2276 1.22926 15.2647 0.633301 14.1933 0.633301C12.6458 0.633301 11.3867 1.89236 11.3867 3.43996C11.3867 3.45995 11.3878 3.47964 11.3882 3.49953H4.65011C4.51228 3.49953 4.40055 3.61126 4.40055 3.74908C4.40055 3.88691 4.51228 3.99864 4.65011 3.99864H11.4427C11.5685 4.61894 11.8999 5.16513 12.3619 5.56406L7.49209 10.774C7.41261 10.859 7.30466 10.9059 7.18825 10.9059C7.07184 10.9059 6.96393 10.859 6.88441 10.774L0.645112 4.09888C0.71786 4.03656 0.812124 3.9986 0.91522 3.9986H3.41691C3.55473 3.9986 3.66646 3.88688 3.66646 3.74905C3.66646 3.61122 3.55473 3.49949 3.41691 3.49949H0.915186C0.410665 3.49949 0.000174634 3.90998 0.000174634 4.41451V13.1703C-0.00998552 13.6606 0.424677 14.0953 0.915186 14.0854H8.41796L9.56689 16.0753C9.67211 16.2576 9.86064 16.3665 10.0711 16.3665H10.0711C10.2817 16.3665 10.4701 16.2577 10.5754 16.0753L11.7243 14.0854H13.4613C13.9515 14.0955 14.3864 13.6607 14.3763 13.1703V6.24001C15.8389 6.14532 17 4.92603 17 3.43996ZM4.30708 8.74751L0.499284 12.8212V4.67379L4.30708 8.74751ZM13.4614 13.5863H11.6763C11.5282 13.5863 11.3902 13.666 11.3161 13.7942L10.1432 15.8258C10.1223 15.862 10.0891 15.8674 10.0711 15.8674C10.0533 15.8674 10.02 15.862 9.99913 15.8258L8.82616 13.7942C8.75209 13.6659 8.61406 13.5863 8.46601 13.5863H0.915186C0.793829 13.5887 0.680208 13.5308 0.60238 13.4418L4.64868 9.11295L6.51981 11.1148C6.6922 11.2992 6.93581 11.405 7.18825 11.405C7.4407 11.405 7.68434 11.2992 7.85673 11.1148L9.72783 9.11298L11.8136 11.3444C11.9079 11.4452 12.0658 11.4503 12.1663 11.3563C12.267 11.2622 12.2723 11.1043 12.1782 11.0036L10.0694 8.74751L12.7705 5.85781C13.102 6.05364 13.477 6.18327 13.8773 6.22836V12.8213L12.9821 11.8636C12.888 11.7629 12.73 11.7575 12.6293 11.8516C12.5286 11.9458 12.5233 12.1037 12.6174 12.2044L13.773 13.4406C13.7011 13.5274 13.5954 13.5773 13.4614 13.5863Z"/><path d="M14.2415 4.95508C14.3794 4.95508 14.4911 4.84335 14.4911 4.70553V2.44047C14.4911 2.30265 14.3794 2.19092 14.2415 2.19092H13.7574C13.6195 2.19092 13.5078 2.30265 13.5078 2.44047C13.5078 2.5783 13.6195 2.69003 13.7574 2.69003H13.992V4.70553C13.992 4.84335 14.1037 4.95508 14.2415 4.95508Z"/></g><defs><clipPath id="clip0"><path fill="#fff" d="M0 0H17V17H0z"/></clipPath></defs></svg>