<svg width="19" height="19" viewBox="0 0 19 19" fill="none" xmlns="http://www.w3.org/2000/svg"><path d="M11.9082 12.2999C11.9425 12.2441 11.9768 12.1893 12.0111 12.1325C13.5532 9.57936 14.3292 7.34597 14.3181 5.49511C14.3112 4.22171 13.8006 3.00279 12.8979 2.1047C11.9951 1.20661 10.7735 0.702364 9.50011 0.702149C8.22669 0.701933 7.00496 1.20576 6.10187 2.10355C5.19879 3.00134 4.68777 4.22008 4.68049 5.49347C4.66921 7.34597 5.44539 9.57966 6.98751 12.1325C7.0218 12.1893 7.05609 12.2441 7.09038 12.2999C3.84375 12.7012 1.69141 13.8615 1.69141 15.2391C1.69141 16.9687 5.12031 18.3235 9.49922 18.3235C13.8781 18.3235 17.307 16.9687 17.307 15.2391C17.307 13.8615 15.1547 12.7012 11.9082 12.2999ZM5.20002 5.49511C5.1968 4.92839 5.30566 4.36663 5.52032 3.84214C5.73499 3.31765 6.05123 2.84077 6.45087 2.43894C6.8505 2.03711 7.32563 1.71825 7.84894 1.50071C8.37224 1.28316 8.93339 1.17122 9.50012 1.17133C10.0668 1.17144 10.6279 1.28359 11.1512 1.50133C11.6744 1.71908 12.1494 2.03811 12.5489 2.4401C12.9484 2.84208 13.2644 3.31908 13.4789 3.84365C13.6934 4.36823 13.802 4.93003 13.7986 5.49674C13.8208 9.1866 10.3711 13.7375 9.49922 14.8289C8.6273 13.7375 5.17746 9.18645 5.20002 5.49511ZM9.49922 17.804C5.13946 17.804 2.21094 16.4777 2.21094 15.2391C2.21094 14.1407 4.38243 13.1187 7.39645 12.7872C7.97938 13.6974 8.61545 14.5724 9.30135 15.4078C9.32571 15.4365 9.35603 15.4595 9.3902 15.4754C9.42436 15.4912 9.46157 15.4994 9.49922 15.4994C9.53687 15.4994 9.57408 15.4912 9.60824 15.4754C9.64241 15.4595 9.67273 15.4365 9.69709 15.4078C10.383 14.5724 11.0192 13.6974 11.6021 12.7872C14.6154 13.1187 16.7877 14.1401 16.7877 15.2391C16.7875 16.4777 13.859 17.804 9.49922 17.804Z" fill="#fff"/><path d="M7.37556 16.2995C6.22279 16.152 5.29743 15.8922 4.77077 15.5685C4.74171 15.5499 4.70924 15.5373 4.67525 15.5314C4.64126 15.5255 4.60644 15.5264 4.57282 15.5342C4.53919 15.5419 4.50744 15.5562 4.47941 15.5763C4.45139 15.5964 4.42765 15.6219 4.40958 15.6513C4.39151 15.6807 4.37948 15.7134 4.37418 15.7475C4.36888 15.7815 4.37042 15.8163 4.37872 15.8498C4.38701 15.8833 4.40189 15.9148 4.42249 15.9425C4.44309 15.9701 4.46899 15.9934 4.49869 16.011C5.08695 16.3726 6.08534 16.6582 7.30965 16.8148C7.32068 16.8162 7.33178 16.8169 7.3429 16.8168C7.40874 16.8165 7.47201 16.7912 7.5199 16.746C7.56779 16.7009 7.59674 16.6392 7.60089 16.5735C7.60504 16.5077 7.58408 16.4429 7.54225 16.3921C7.50042 16.3412 7.44084 16.3081 7.37556 16.2995Z" fill="#fff"/><path d="M9.93515 16.4238C9.57312 16.4321 9.19609 16.4302 8.82811 16.4167C8.794 16.4154 8.75997 16.4209 8.72797 16.4328C8.69598 16.4447 8.66663 16.4628 8.64162 16.486C8.61661 16.5092 8.59642 16.5372 8.58221 16.5682C8.56799 16.5992 8.56003 16.6328 8.55877 16.6669C8.55751 16.701 8.56299 16.735 8.57488 16.767C8.58677 16.799 8.60485 16.8283 8.62808 16.8534C8.65132 16.8784 8.67925 16.8986 8.71028 16.9128C8.74132 16.927 8.77485 16.935 8.80896 16.9362C9.03726 16.9445 9.26912 16.9488 9.4989 16.9488C9.65001 16.9488 9.79948 16.947 9.94733 16.9435C10.0162 16.9419 10.0816 16.913 10.1292 16.8632C10.1768 16.8133 10.2026 16.7467 10.201 16.6778C10.2007 16.6435 10.1934 16.6097 10.1798 16.5782C10.1662 16.5468 10.1464 16.5184 10.1216 16.4948C10.0968 16.4711 10.0676 16.4526 10.0356 16.4404C10.0035 16.4282 9.9694 16.4226 9.93515 16.4238Z" fill="#fff"/><path d="M11.6919 5.49507C11.6918 5.06122 11.5631 4.63713 11.3221 4.27643C11.081 3.91573 10.7384 3.63462 10.3375 3.46864C9.93667 3.30266 9.49561 3.25927 9.07011 3.34396C8.6446 3.42864 8.25377 3.6376 7.94702 3.94441C7.64028 4.25122 7.4314 4.6421 7.3468 5.06762C7.2622 5.49314 7.30568 5.93419 7.47174 6.335C7.6378 6.73581 7.91898 7.07837 8.27973 7.31938C8.64048 7.56039 9.0646 7.68901 9.49844 7.68898C10.08 7.68827 10.6376 7.45689 11.0488 7.04559C11.46 6.63429 11.6913 6.07667 11.6919 5.49507ZM7.82437 5.49507C7.82443 5.16398 7.92266 4.84035 8.10664 4.56508C8.29063 4.28982 8.55211 4.0753 8.85801 3.94864C9.16391 3.82197 9.5005 3.78886 9.82522 3.85349C10.1499 3.91812 10.4482 4.07759 10.6823 4.31172C10.9164 4.54586 11.0758 4.84415 11.1404 5.16888C11.2049 5.49361 11.1718 5.8302 11.0451 6.13608C10.9183 6.44196 10.7038 6.7034 10.4285 6.88733C10.1532 7.07127 9.82953 7.16945 9.49844 7.16945C9.05454 7.16897 8.62897 6.99241 8.31511 6.67849C8.00125 6.36458 7.82476 5.93897 7.82437 5.49507Z" fill="#fff"/></svg>