<svg width="24" height="20" viewBox="0 0 24 20" fill="none" xmlns="http://www.w3.org/2000/svg"><path d="M23.196 3.0682C22.8799 2.69235 22.4101 2.47682 21.9071 2.47682H3.94598L3.78558 1.37216C3.672 0.589925 2.96654 0 2.14459 0H0.736387C0.329717 0 0 0.316856 0 0.707662C0 1.09847 0.329717 1.41532 0.736387 1.41532H2.14459C2.2359 1.41532 2.31433 1.48087 2.32689 1.56778L4.31463 15.2579C4.42822 16.0402 5.13368 16.6301 5.95562 16.6301H6.7541C6.67236 16.8516 6.62744 17.0896 6.62744 17.3377C6.62744 18.5083 7.61848 19.4607 8.8366 19.4607C10.0547 19.4607 11.0458 18.5083 11.0458 17.3377C11.0458 17.0896 11.0008 16.8516 10.9191 16.6301H14.8544C14.7726 16.8516 14.7277 17.0896 14.7277 17.3377C14.7277 18.5083 15.7187 19.4607 16.9369 19.4607C18.155 19.4607 19.146 18.5083 19.146 17.3377C19.146 17.0896 19.1011 16.8516 19.0194 16.6301H20.6188C21.0255 16.6301 21.3552 16.3132 21.3552 15.9224C21.3552 15.5316 21.0255 15.2147 20.6188 15.2147H5.95567C5.86436 15.2147 5.78593 15.1492 5.77337 15.0623L5.59001 13.7994H20.0923C20.8682 13.7994 21.5496 13.2702 21.7126 12.5407L23.5273 4.40277C23.6327 3.93036 23.512 3.44393 23.196 3.0682ZM9.57304 17.3377C9.57304 17.7279 9.24267 18.0454 8.83665 18.0454C8.43062 18.0454 8.10026 17.7279 8.10026 17.3377C8.10026 16.9475 8.43062 16.6301 8.83665 16.6301C9.24267 16.6301 9.57304 16.9475 9.57304 17.3377ZM17.6733 17.3377C17.6733 17.7279 17.3429 18.0454 16.9369 18.0454C16.5309 18.0454 16.2005 17.7279 16.2005 17.3377C16.2005 16.9475 16.5309 16.6301 16.9369 16.6301C17.3429 16.6301 17.6733 16.9475 17.6733 17.3377ZM22.0872 4.10608L20.2726 12.2439C20.2545 12.3251 20.1786 12.384 20.0923 12.384H5.38446L4.15148 3.8921H21.9071C21.9799 3.8921 22.0253 3.92784 22.0505 3.95782C22.0757 3.98777 22.1025 4.03779 22.0872 4.10608Z" fill="#000"/></svg>