<svg width="8" height="7" viewBox="0 0 8 7" fill="none" xmlns="http://www.w3.org/2000/svg">
<path d="M7.76238 5.82178C8.07921 6.09901 8.07921 6.51485 7.76238 6.79208C7.60396 6.93069 7.40594 7 7.20792 7C7.0099 7 6.81188 6.93069 6.65346 6.79208L4 4.4703L1.34653 6.79208C1.18812 6.93069 0.990099 7 0.792079 7C0.594059 7 0.39604 6.93069 0.237624 6.79208C-0.0792079 6.51485 -0.0792079 6.09901 0.237624 5.82178L2.89109 3.5L0.237624 1.17822C-0.0792079 0.90099 -0.0792079 0.485149 0.237624 0.207921C0.554455 -0.0693069 1.0297 -0.0693069 1.34653 0.207921L4 2.5297L6.65346 0.207921C6.9703 -0.0693069 7.44554 -0.0693069 7.76238 0.207921C8.07921 0.485149 8.07921 0.90099 7.76238 1.17822L5.10891 3.5L7.76238 5.82178Z" fill="#8F1E1E"/>
</svg>
