<svg width="18" height="17" viewBox="0 0 18 17" fill="none" xmlns="http://www.w3.org/2000/svg"><path d="M17.4653 14.1386C18.1782 14.8119 18.1782 15.8218 17.4653 16.4951C17.1089 16.8317 16.6634 17 16.2178 17C15.7723 17 15.3267 16.8317 14.9703 16.4951L9 10.8564L3.0297 16.4951C2.67327 16.8317 2.22772 17 1.78218 17C1.33663 17 0.891089 16.8317 0.534653 16.4951C-0.178218 15.8218 -0.178218 14.8119 0.534653 14.1386L6.50495 8.5L0.534653 2.86139C-0.178218 2.18812 -0.178218 1.17822 0.534653 0.504951C1.24752 -0.168317 2.31683 -0.168317 3.0297 0.504951L9 6.14356L14.9703 0.504951C15.6832 -0.168317 16.7525 -0.168317 17.4653 0.504951C18.1782 1.17822 18.1782 2.18812 17.4653 2.86139L11.495 8.5L17.4653 14.1386Z" fill="#000"/></svg>