<svg width="10" height="8" viewBox="0 0 10 8" fill="none" xmlns="http://www.w3.org/2000/svg"><path d="M8.38341 3.4761C8.75724 3.4761 9.0376 3.72155 9.0376 4.04883C9.0376 4.21247 8.96751 4.35565 8.85069 4.45792C8.73387 4.56019 8.57032 4.62156 8.38341 4.62156L5.25263 4.62156L5.25263 7.36248C5.25263 7.52612 5.18254 7.6693 5.06572 7.77157C4.9489 7.87385 4.78535 7.93521 4.59844 7.93521C4.22462 7.93521 3.94425 7.68975 3.94425 7.36248L3.94425 4.62156L0.813467 4.62156C0.439643 4.62156 0.159275 4.3761 0.159275 4.04883C0.159275 3.72155 0.439643 3.4761 0.813467 3.4761L3.94425 3.4761L3.94425 0.735176C3.94425 0.407901 4.22462 0.162445 4.59844 0.162445C4.97226 0.162445 5.25263 0.407901 5.25263 0.735175L5.25263 3.4761L8.38341 3.4761Z" fill="#1A677C"/></svg>