<svg width="12" height="12" viewBox="0 0 12 12" fill="none" xmlns="http://www.w3.org/2000/svg"><path d="M0.29781 10.0907H2.38194V11.7273C2.38194 11.8069 2.40975 11.8721 2.46571 11.9231C2.52151 11.9744 2.59285 12 2.67975 12H4.23343C4.31407 12 4.38384 11.9744 4.44278 11.9231C4.50171 11.8721 4.53109 11.8069 4.53109 11.7273V10.0907H9.22958C9.3163 10.0907 9.38767 10.0654 9.4436 10.0141C9.49958 9.96291 9.52737 9.89768 9.52737 9.81805V8.7271C9.52737 8.64794 9.49958 8.58229 9.4436 8.53133C9.38782 8.48005 9.3163 8.45441 9.22958 8.45441H4.53093V7.44869H7.69429C8.93475 7.44869 9.94718 7.10244 10.732 6.40897C11.5166 5.71622 11.909 4.82136 11.909 3.72434C11.909 2.62805 11.5166 1.73317 10.732 1.03972C9.94734 0.346949 8.93473 0 7.69429 0H2.67959C2.59267 0 2.52148 0.0256171 2.46555 0.0765927C2.40975 0.127851 2.38178 0.193481 2.38178 0.272662V5.63359H0.29781C0.210909 5.63359 0.139699 5.66052 0.0837678 5.71448C0.0279911 5.76847 0 5.83238 0 5.90622V7.17598C0 7.2556 0.0278113 7.32084 0.0837678 7.37207C0.139724 7.42335 0.210755 7.44866 0.29781 7.44866H2.38194V8.45439H0.29781C0.210909 8.45439 0.139699 8.48003 0.0837678 8.53131C0.0279911 8.58226 0 8.64778 0 8.72707V9.81803C0 9.89765 0.0278113 9.96288 0.0837678 10.0141C0.139699 10.0654 0.210883 10.0907 0.29781 10.0907ZM4.53093 1.81552H7.50821C8.16561 1.81552 8.69585 1.9916 9.09916 2.34386C9.50225 2.69615 9.70389 3.15653 9.70389 3.72448C9.70389 4.29272 9.50225 4.75324 9.09916 5.10511C8.69585 5.45768 8.16559 5.63375 7.50821 5.63375H4.53093V1.81552Z" fill="#000"/></svg>