<svg width="28" height="28" viewBox="0 0 28 28" fill="none" xmlns="http://www.w3.org/2000/svg"><path d="M20.8906 0H12.9062C12.6042 0 12.3594 0.244812 12.3594 0.546875C12.3594 0.848938 12.6042 1.09375 12.9062 1.09375H20.8906C24.2076 1.09375 26.9062 3.79224 26.9062 7.10938V20.8906C26.9062 24.2078 24.2076 26.9062 20.8906 26.9062H7.10938C3.79245 26.9062 1.09375 24.2078 1.09375 20.8906V7.10938C1.09375 3.79224 3.79245 1.09375 7.10938 1.09375H8.53125C8.83331 1.09375 9.07812 0.848938 9.07812 0.546875C9.07812 0.244812 8.83331 0 8.53125 0H7.10938C3.18918 0 0 3.18918 0 7.10938V20.8906C0 24.8108 3.18918 28 7.10938 28H20.8906C24.8108 28 28 24.8108 28 20.8906V7.10938C28 3.18918 24.8108 0 20.8906 0Z" fill="#fff"/><path d="M19.4688 25.8125H20.8906C23.6045 25.8125 25.8125 23.6045 25.8125 20.8906V7.10938C25.8125 4.39551 23.6045 2.1875 20.8906 2.1875H7.10938C4.39551 2.1875 2.1875 4.39551 2.1875 7.10938V20.8906C2.1875 23.6045 4.39551 25.8125 7.10938 25.8125H15.0938C15.3958 25.8125 15.6406 25.5677 15.6406 25.2656C15.6406 24.9636 15.3958 24.7188 15.0938 24.7188H7.10938C4.99857 24.7188 3.28125 23.0014 3.28125 20.8906V7.10938C3.28125 4.99857 4.99857 3.28125 7.10938 3.28125H20.8906C23.0014 3.28125 24.7188 4.99857 24.7188 7.10938V20.8906C24.7188 23.0014 23.0014 24.7188 20.8906 24.7188H19.4688C19.1667 24.7188 18.9219 24.9636 18.9219 25.2656C18.9219 25.5677 19.1667 25.8125 19.4688 25.8125Z" fill="#fff"/><path d="M20.0156 14C20.0156 10.6831 17.3169 7.98438 14 7.98438C10.6831 7.98438 7.98438 10.6831 7.98438 14C7.98438 17.3169 10.6831 20.0156 14 20.0156C17.3169 20.0156 20.0156 17.3169 20.0156 14ZM14 18.9219C11.2861 18.9219 9.07812 16.7139 9.07812 14C9.07812 11.2861 11.2861 9.07812 14 9.07812C16.7139 9.07812 18.9219 11.2861 18.9219 14C18.9219 16.7139 16.7139 18.9219 14 18.9219Z" fill="#fff"/><path d="M14 10.1719C11.8892 10.1719 10.1719 11.8892 10.1719 14C10.1719 16.1108 11.8892 17.8281 14 17.8281C16.1108 17.8281 17.8281 16.1108 17.8281 14C17.8281 11.8892 16.1108 10.1719 14 10.1719ZM14 16.7344C12.4922 16.7344 11.2656 15.5078 11.2656 14C11.2656 12.4922 12.4922 11.2656 14 11.2656C15.5078 11.2656 16.7344 12.4922 16.7344 14C16.7344 15.5078 15.5078 16.7344 14 16.7344Z" fill="#fff"/><path d="M23.0781 7.10938C23.0781 5.90305 22.0967 4.92188 20.8906 4.92188C19.6843 4.92188 18.7031 5.90305 18.7031 7.10938C18.7031 8.31549 19.6843 9.29688 20.8906 9.29688C22.0967 9.29688 23.0781 8.31549 23.0781 7.10938ZM19.7969 7.10938C19.7969 6.5061 20.2876 6.01562 20.8906 6.01562C21.4937 6.01562 21.9844 6.5061 21.9844 7.10938C21.9844 7.71243 21.4937 8.20312 20.8906 8.20312C20.2876 8.20312 19.7969 7.71243 19.7969 7.10938Z" fill="#fff"/><path d="M10.719 1.09375C11.021 1.09375 11.2658 0.848938 11.2658 0.546875C11.2658 0.244812 11.021 0 10.719 0H10.7185C10.4167 0 10.1719 0.244812 10.1719 0.546875C10.1719 0.848938 10.4169 1.09375 10.719 1.09375Z" fill="#fff"/><path d="M17.281 24.7188C16.979 24.7188 16.7344 24.9636 16.7344 25.2656C16.7344 25.5677 16.9794 25.8125 17.2815 25.8125C17.5835 25.8125 17.8283 25.5677 17.8283 25.2656C17.8283 24.9636 17.5835 24.7188 17.2815 24.7188H17.281Z" fill="#fff"/></svg>