<svg width="27" height="27" viewBox="0 0 27 27" fill="none" xmlns="http://www.w3.org/2000/svg"><path d="M22.4953 3.97733H18.9452C16.1818 3.97733 13.9336 6.22554 13.9336 8.98895V11.9851H11.1243C10.8332 11.9851 10.5969 12.2212 10.5969 12.5125V16.5697C10.5969 16.861 10.8332 17.0971 11.1243 17.0971H13.9336V25.9453H1.58203C1.29117 25.9453 1.05469 25.7088 1.05469 25.418V1.58203C1.05469 1.29117 1.29117 1.05469 1.58203 1.05469H2.63672C2.92799 1.05469 3.16406 0.818619 3.16406 0.527344C3.16406 0.236069 2.92799 0 2.63672 0H1.58203C0.709648 0 0 0.709648 0 1.58203V25.418C0 26.2904 0.709648 27 1.58203 27H14.461C14.7522 27 14.9883 26.7639 14.9883 26.4727V16.5697C14.9883 16.2784 14.7522 16.0424 14.461 16.0424H11.6518V13.0396H14.461C14.7522 13.0396 14.9883 12.8035 14.9883 12.5123V8.98895C14.9883 6.80706 16.7634 5.03181 18.9454 5.03181H21.9682V8.03437H18.9454C18.428 8.03437 17.9909 8.47149 17.9909 8.98895V12.5123C17.9909 12.8035 18.2269 13.0396 18.5182 13.0396H21.8942L21.4991 16.0424H18.5182C18.2271 16.0424 17.9909 16.2784 17.9909 16.5697V26.4727C17.9909 26.7639 18.2271 27 18.5182 27H20.1445C20.4358 27 20.6719 26.7639 20.6719 26.4727C20.6719 26.1814 20.4358 25.9453 20.1445 25.9453H19.0456V17.0971H21.9616C22.2263 17.0971 22.45 16.9007 22.4844 16.6385L23.0183 12.5811C23.0381 12.4307 22.9922 12.2789 22.8921 12.1647C22.792 12.0504 22.6474 11.9851 22.4955 11.9851H19.0458V9.08926H22.4955C22.7868 9.08926 23.0229 8.8532 23.0229 8.56192V4.50467C23.0227 4.21339 22.7866 3.97733 22.4953 3.97733Z" fill="#fff"/><path d="M25.418 0H6.85547C6.56419 0 6.32812 0.236069 6.32812 0.527344C6.32812 0.818619 6.56419 1.05469 6.85547 1.05469H25.418C25.7088 1.05469 25.9453 1.29117 25.9453 1.58203V25.418C25.9453 25.7088 25.7088 25.9453 25.418 25.9453H24.3633C24.072 25.9453 23.8359 26.1814 23.8359 26.4727C23.8359 26.7639 24.072 27 24.3633 27H25.418C26.2904 27 27 26.2904 27 25.418V1.58203C27 0.709648 26.2904 0 25.418 0Z" fill="#fff"/><path d="M22.2541 25.9453H22.2537C21.9624 25.9453 21.7266 26.1814 21.7266 26.4727C21.7266 26.7639 21.9628 27 22.2541 27C22.5454 27 22.7815 26.7639 22.7815 26.4727C22.7815 26.1814 22.5454 25.9453 22.2541 25.9453Z" fill="#fff"/><path d="M4.7463 1.05469C5.03757 1.05469 5.27364 0.818619 5.27364 0.527344C5.27364 0.236069 5.03757 0 4.7463 0H4.74589C4.45461 0 4.21875 0.236069 4.21875 0.527344C4.21875 0.818619 4.45502 1.05469 4.7463 1.05469Z" fill="#fff"/></svg>