<svg width="18" height="17" viewBox="0 0 18 17" fill="none" xmlns="http://www.w3.org/2000/svg"><g clip-path="url(#clip0)" fill="#000"><path d="M11.3976 0C11.2321 0 11.0977 0.126935 11.0977 0.283322C11.0977 0.439708 11.2321 0.566643 11.3976 0.566643C14.7061 0.566643 17.3976 3.1087 17.3976 6.23331C17.3976 6.3897 17.532 6.51663 17.6976 6.51663C17.8635 6.51663 17.9976 6.3897 17.9976 6.23331C17.9976 2.79623 15.0369 0 11.3976 0Z"/><path d="M11.3976 1.7002C11.2321 1.7002 11.0977 1.82713 11.0977 1.98352C11.0977 2.1399 11.2321 2.26684 11.3976 2.26684C13.7136 2.26684 15.5976 4.04616 15.5976 6.23351C15.5976 6.3899 15.7321 6.51683 15.8976 6.51683C16.0635 6.51683 16.1976 6.3899 16.1976 6.23351C16.1976 3.73398 14.0445 1.7002 11.3976 1.7002Z"/><path d="M11.3976 3.3999C11.2321 3.3999 11.0977 3.52684 11.0977 3.68322C11.0977 3.83961 11.2321 3.96655 11.3976 3.96655C12.721 3.96655 13.7977 4.98342 13.7977 6.23322C13.7977 6.3896 13.9321 6.51654 14.0976 6.51654C14.2635 6.51654 14.3976 6.3896 14.3976 6.23322C14.3976 4.67095 13.0518 3.3999 11.3976 3.3999Z"/><path d="M16.2338 10.6321C15.4175 10.5307 14.6126 10.3414 13.8416 10.0702C13.095 9.80588 12.2465 9.97644 11.6783 10.506L10.73 11.3996C8.74164 10.2924 7.08054 8.72668 5.90545 6.85243L6.85435 5.95824C7.41533 5.4236 7.59653 4.62318 7.31605 3.91967C7.02837 3.19266 6.82766 2.43416 6.71966 1.66206C6.57595 0.704949 5.69845 -0.00367123 4.67277 1.43101e-05H2.04807C1.98687 1.43101e-05 1.92566 0.00283657 1.86509 0.00794984C1.31996 0.0544341 0.826468 0.298377 0.47575 0.69449C0.125067 1.09087 -0.0411518 1.59237 0.00866452 2.11113C0.299371 4.69174 1.24437 7.20687 2.73988 9.38287C4.09768 11.3968 5.94479 13.1379 8.07926 14.4163C10.3791 15.8222 13.0349 16.7127 15.7658 16.9923C15.8276 16.9975 15.8897 17 15.9521 17C15.9539 17 15.9557 17 15.9578 17C17.0882 16.9954 18.0038 16.1251 17.9993 15.0606V12.5902C18.023 11.6107 17.2658 10.7692 16.2338 10.6321ZM17.3993 12.58C17.3993 12.5823 17.3993 12.5848 17.3993 12.5871V15.062C17.4023 15.8151 16.7546 16.4305 15.9558 16.4336C15.909 16.4319 15.864 16.4319 15.8243 16.4285C13.1922 16.1588 10.6265 15.2986 8.40266 13.9391C6.33987 12.7035 4.55668 11.0228 3.24447 9.07627C1.79875 6.97286 0.886163 4.54356 0.605652 2.05562C0.570847 1.69237 0.688163 1.33823 0.93626 1.058C1.18436 0.777763 1.53325 0.60524 1.91905 0.572369C1.96194 0.568683 2.00487 0.566691 2.04804 0.566691H4.67544C4.68025 0.566691 4.68503 0.566691 4.68985 0.566691C5.40865 0.566691 6.02456 1.06962 6.12503 1.73883C6.23873 2.55057 6.45023 3.35127 6.75412 4.11882C6.95243 4.61634 6.82432 5.18188 6.4292 5.55844L5.31802 6.60563C5.22201 6.69601 5.20222 6.83543 5.26912 6.9465C6.54051 9.05449 8.39482 10.8021 10.6307 12.0003C10.7483 12.0635 10.8953 12.0442 10.9907 11.9544L12.1007 10.9084C12.5018 10.5347 13.1027 10.4142 13.6313 10.6012C14.4449 10.8874 15.2942 11.0872 16.1525 11.1937C16.8815 11.2906 17.4176 11.8864 17.3993 12.58Z"/><path d="M4.50053 1.1333H2.04864C2.02343 1.1333 1.99854 1.13443 1.97365 1.13669C1.66797 1.16275 1.48104 1.32651 1.39705 1.42144C1.32955 1.49764 1.17536 1.70562 1.20236 1.99123C1.31577 2.99622 1.52094 3.97399 1.81284 4.89766C1.85183 5.02035 1.97094 5.09997 2.10025 5.09997C2.12876 5.09997 2.15755 5.09628 2.18634 5.08808C2.34504 5.04333 2.43535 4.88551 2.38793 4.73563C2.10654 3.84539 1.90854 2.90189 1.79963 1.93602C1.79273 1.86407 1.84223 1.80201 1.85753 1.78445C1.88214 1.75669 1.93702 1.70881 2.04864 1.70001H4.49994C4.50025 1.70001 4.50025 1.70001 4.50025 1.70001C4.66584 1.70001 4.80024 1.57337 4.80024 1.41695C4.80052 1.2605 4.66612 1.1333 4.50053 1.1333Z"/><path d="M16.5014 12.4668C16.3358 12.4668 16.2014 12.5937 16.2014 12.7501L16.2011 15.0618C16.2014 15.1256 16.1756 15.1856 16.1285 15.2304C16.0814 15.2751 16.019 15.2998 15.9596 15.3001L15.932 15.2995C14.9069 15.1944 13.9163 15.008 12.9878 14.7453C12.8297 14.7003 12.662 14.7856 12.6143 14.9354C12.5666 15.0853 12.6569 15.2431 12.8156 15.2882C13.7789 15.5608 14.8058 15.754 15.8726 15.8634C15.8972 15.8656 15.9473 15.8668 15.9545 15.8668C16.1816 15.8659 16.3946 15.7818 16.5545 15.6296C16.7144 15.4772 16.802 15.2749 16.8011 15.0607L16.8014 12.7501C16.8014 12.5937 16.667 12.4668 16.5014 12.4668Z"/></g><defs><clipPath id="clip0"><path fill="#fff" d="M0 0H18V17H0z"/></clipPath></defs></svg>